# Blender v2.92.0 OBJ File: ''
# www.blender.org
mtllib ghast.mtl
o f4b26db7-3f9d-0b50-9c5f-6585b2801227_Mesh_0.002
v 0.500000 1.000000 0.500000
v 0.500000 0.000000 0.500000
v 0.500000 1.000000 -0.500000
v 0.500000 0.000000 0.500000
v 0.500000 0.000000 -0.500000
v 0.500000 1.000000 -0.500000
v -0.500000 1.000000 -0.500000
v -0.500000 0.000000 -0.500000
v -0.500000 1.000000 0.500000
v -0.500000 0.000000 -0.500000
v -0.500000 0.000000 0.500000
v -0.500000 1.000000 0.500000
v -0.500000 1.000000 -0.500000
v -0.500000 1.000000 0.500000
v 0.500000 1.000000 -0.500000
v -0.500000 1.000000 0.500000
v 0.500000 1.000000 0.500000
v 0.500000 1.000000 -0.500000
v -0.500000 0.000000 0.500000
v -0.500000 0.000000 -0.500000
v 0.500000 0.000000 0.500000
v -0.500000 0.000000 -0.500000
v 0.500000 0.000000 -0.500000
v 0.500000 0.000000 0.500000
v -0.500000 1.000000 0.500000
v -0.500000 0.000000 0.500000
v 0.500000 1.000000 0.500000
v -0.500000 0.000000 0.500000
v 0.500000 0.000000 0.500000
v 0.500000 1.000000 0.500000
v 0.500000 1.000000 -0.500000
v 0.500000 0.000000 -0.500000
v -0.500000 1.000000 -0.500000
v 0.500000 0.000000 -0.500000
v -0.500000 0.000000 -0.500000
v -0.500000 1.000000 -0.500000
vt 0.000244 0.500488
vt 0.000244 0.999512
vt 0.249756 0.500488
vt 0.000244 0.999512
vt 0.249756 0.999512
vt 0.249756 0.500488
vt 0.500244 0.500488
vt 0.500244 0.999512
vt 0.749756 0.500488
vt 0.500244 0.999512
vt 0.749756 0.999512
vt 0.749756 0.500488
vt 0.499756 0.499512
vt 0.499756 0.000488
vt 0.250244 0.499512
vt 0.499756 0.000488
vt 0.250244 0.000488
vt 0.250244 0.499512
vt 0.749756 0.000488
vt 0.749756 0.499512
vt 0.500244 0.000488
vt 0.749756 0.499512
vt 0.500244 0.499512
vt 0.500244 0.000488
vt 0.750244 0.500488
vt 0.750244 0.999512
vt 0.999756 0.500488
vt 0.750244 0.999512
vt 0.999756 0.999512
vt 0.999756 0.500488
vt 0.250244 0.500488
vt 0.250244 0.999512
vt 0.499756 0.500488
vt 0.250244 0.999512
vt 0.499756 0.999512
vt 0.499756 0.500488
vn 1.0000 0.0000 0.0000
vn -1.0000 0.0000 0.0000
vn 0.0000 1.0000 0.0000
vn 0.0000 -1.0000 0.0000
vn 0.0000 0.0000 1.0000
vn 0.0000 0.0000 -1.0000
usemtl ghast.png
s off
f 1/1/1 2/2/1 3/3/1
f 4/4/1 5/5/1 6/6/1
f 7/7/2 8/8/2 9/9/2
f 10/10/2 11/11/2 12/12/2
f 13/13/3 14/14/3 15/15/3
f 16/16/3 17/17/3 18/18/3
f 19/19/4 20/20/4 21/21/4
f 22/22/4 23/23/4 24/24/4
f 25/25/5 26/26/5 27/27/5
f 28/28/5 29/29/5 30/30/5
f 31/31/6 32/32/6 33/33/6
f 34/34/6 35/35/6 36/36/6
o 9faa5859-67a9-6825-bc09-b1bbde27e163_Mesh_1.002
v 0.300000 0.065879 -0.272789
v 0.300000 -0.462698 -0.080403
v 0.300000 0.023127 -0.390251
v 0.300000 -0.462698 -0.080403
v 0.300000 -0.505450 -0.197865
v 0.300000 0.023127 -0.390251
v 0.175000 0.023127 -0.390251
v 0.175000 -0.505450 -0.197865
v 0.175000 0.065879 -0.272789
v 0.175000 -0.505450 -0.197865
v 0.175000 -0.462698 -0.080403
v 0.175000 0.065879 -0.272789
v 0.175000 0.023127 -0.390251
v 0.175000 0.065879 -0.272789
v 0.300000 0.023127 -0.390251
v 0.175000 0.065879 -0.272789
v 0.300000 0.065879 -0.272789
v 0.300000 0.023127 -0.390251
v 0.175000 -0.462698 -0.080403
v 0.175000 -0.505450 -0.197865
v 0.300000 -0.462698 -0.080403
v 0.175000 -0.505450 -0.197865
v 0.300000 -0.505450 -0.197865
v 0.300000 -0.462698 -0.080403
v 0.175000 0.065879 -0.272789
v 0.175000 -0.462698 -0.080403
v 0.300000 0.065879 -0.272789
v 0.175000 -0.462698 -0.080403
v 0.300000 -0.462698 -0.080403
v 0.300000 0.065879 -0.272789
v 0.300000 0.023127 -0.390251
v 0.300000 -0.505450 -0.197865
v 0.175000 0.023127 -0.390251
v 0.300000 -0.505450 -0.197865
v 0.175000 -0.505450 -0.197865
v 0.175000 0.023127 -0.390251
vt 0.000244 0.062988
vt 0.000244 0.343262
vt 0.031006 0.062988
vt 0.000244 0.343262
vt 0.031006 0.343262
vt 0.031006 0.062988
vt 0.062744 0.062988
vt 0.062744 0.343262
vt 0.093506 0.062988
vt 0.062744 0.343262
vt 0.093506 0.343262
vt 0.093506 0.062988
vt 0.062256 0.062012
vt 0.062256 0.000488
vt 0.031494 0.062012
vt 0.062256 0.000488
vt 0.031494 0.000488
vt 0.031494 0.062012
vt 0.093506 0.000488
vt 0.093506 0.062012
vt 0.062744 0.000488
vt 0.093506 0.062012
vt 0.062744 0.062012
vt 0.062744 0.000488
vt 0.093994 0.062988
vt 0.093994 0.343262
vt 0.124756 0.062988
vt 0.093994 0.343262
vt 0.124756 0.343262
vt 0.124756 0.062988
vt 0.031494 0.062988
vt 0.031494 0.343262
vt 0.062256 0.062988
vt 0.031494 0.343262
vt 0.062256 0.343262
vt 0.062256 0.062988
vn 1.0000 0.0000 0.0000
vn -1.0000 -0.0000 0.0000
vn 0.0000 0.9397 -0.3420
vn 0.0000 -0.9397 0.3420
vn 0.0000 0.3420 0.9397
vn 0.0000 -0.3420 -0.9397
usemtl ghast.png
s off
f 37/37/7 38/38/7 39/39/7
f 40/40/7 41/41/7 42/42/7
f 43/43/8 44/44/8 45/45/8
f 46/46/8 47/47/8 48/48/8
f 49/49/9 50/50/9 51/51/9
f 52/52/9 53/53/9 54/54/9
f 55/55/10 56/56/10 57/57/10
f 58/58/10 59/59/10 60/60/10
f 61/61/11 62/62/11 63/63/11
f 64/64/11 65/65/11 66/66/11
f 67/67/12 68/68/12 69/69/12
f 70/70/12 71/71/12 72/72/12
o 9ee466e4-e9e7-cf3b-bb90-e17d6894616e_Mesh_2.002
v -0.018750 0.065879 -0.272789
v -0.018750 -0.580159 -0.037650
v -0.018750 0.023127 -0.390251
v -0.018750 -0.580159 -0.037650
v -0.018750 -0.622912 -0.155112
v -0.018750 0.023127 -0.390251
v -0.143750 0.023127 -0.390251
v -0.143750 -0.622912 -0.155112
v -0.143750 0.065879 -0.272789
v -0.143750 -0.622912 -0.155112
v -0.143750 -0.580159 -0.037650
v -0.143750 0.065879 -0.272789
v -0.143750 0.023127 -0.390251
v -0.143750 0.065879 -0.272789
v -0.018750 0.023127 -0.390251
v -0.143750 0.065879 -0.272789
v -0.018750 0.065879 -0.272789
v -0.018750 0.023127 -0.390251
v -0.143750 -0.580159 -0.037650
v -0.143750 -0.622912 -0.155112
v -0.018750 -0.580159 -0.037650
v -0.143750 -0.622912 -0.155112
v -0.018750 -0.622912 -0.155112
v -0.018750 -0.580159 -0.037650
v -0.143750 0.065879 -0.272789
v -0.143750 -0.580159 -0.037650
v -0.018750 0.065879 -0.272789
v -0.143750 -0.580159 -0.037650
v -0.018750 -0.580159 -0.037650
v -0.018750 0.065879 -0.272789
v -0.018750 0.023127 -0.390251
v -0.018750 -0.622912 -0.155112
v -0.143750 0.023127 -0.390251
v -0.018750 -0.622912 -0.155112
v -0.143750 -0.622912 -0.155112
v -0.143750 0.023127 -0.390251
vt 0.000244 0.062988
vt 0.000244 0.405762
vt 0.031006 0.062988
vt 0.000244 0.405762
vt 0.031006 0.405762
vt 0.031006 0.062988
vt 0.062744 0.062988
vt 0.062744 0.405762
vt 0.093506 0.062988
vt 0.062744 0.405762
vt 0.093506 0.405762
vt 0.093506 0.062988
vt 0.062256 0.062012
vt 0.062256 0.000488
vt 0.031494 0.062012
vt 0.062256 0.000488
vt 0.031494 0.000488
vt 0.031494 0.062012
vt 0.093506 0.000488
vt 0.093506 0.062012
vt 0.062744 0.000488
vt 0.093506 0.062012
vt 0.062744 0.062012
vt 0.062744 0.000488
vt 0.093994 0.062988
vt 0.093994 0.405762
vt 0.124756 0.062988
vt 0.093994 0.405762
vt 0.124756 0.405762
vt 0.124756 0.062988
vt 0.031494 0.062988
vt 0.031494 0.405762
vt 0.062256 0.062988
vt 0.031494 0.405762
vt 0.062256 0.405762
vt 0.062256 0.062988
vn 1.0000 0.0000 0.0000
vn -1.0000 0.0000 0.0000
vn 0.0000 0.9397 -0.3420
vn 0.0000 -0.9397 0.3420
vn 0.0000 0.3420 0.9397
vn 0.0000 -0.3420 -0.9397
usemtl ghast.png
s off
f 73/73/13 74/74/13 75/75/13
f 76/76/13 77/77/13 78/78/13
f 79/79/14 80/80/14 81/81/14
f 82/82/14 83/83/14 84/84/14
f 85/85/15 86/86/15 87/87/15
f 88/88/15 89/89/15 90/90/15
f 91/91/16 92/92/16 93/93/16
f 94/94/16 95/95/16 96/96/16
f 97/97/17 98/98/17 99/99/17
f 100/100/17 101/101/17 102/102/17
f 103/103/18 104/104/18 105/105/18
f 106/106/18 107/107/18 108/108/18
o 0afcfb66-64df-70ad-11fc-1124baddb3c5_Mesh_3.002
v -0.331250 0.065879 -0.272789
v -0.331250 -0.403967 -0.101779
v -0.331250 0.023127 -0.390251
v -0.331250 -0.403967 -0.101779
v -0.331250 -0.446719 -0.219241
v -0.331250 0.023127 -0.390251
v -0.456250 0.023127 -0.390251
v -0.456250 -0.446719 -0.219241
v -0.456250 0.065879 -0.272789
v -0.456250 -0.446719 -0.219241
v -0.456250 -0.403967 -0.101779
v -0.456250 0.065879 -0.272789
v -0.456250 0.023127 -0.390251
v -0.456250 0.065879 -0.272789
v -0.331250 0.023127 -0.390251
v -0.456250 0.065879 -0.272789
v -0.331250 0.065879 -0.272789
v -0.331250 0.023127 -0.390251
v -0.456250 -0.403967 -0.101779
v -0.456250 -0.446719 -0.219241
v -0.331250 -0.403967 -0.101779
v -0.456250 -0.446719 -0.219241
v -0.331250 -0.446719 -0.219241
v -0.331250 -0.403967 -0.101779
v -0.456250 0.065879 -0.272789
v -0.456250 -0.403967 -0.101779
v -0.331250 0.065879 -0.272789
v -0.456250 -0.403967 -0.101779
v -0.331250 -0.403967 -0.101779
v -0.331250 0.065879 -0.272789
v -0.331250 0.023127 -0.390251
v -0.331250 -0.446719 -0.219241
v -0.456250 0.023127 -0.390251
v -0.331250 -0.446719 -0.219241
v -0.456250 -0.446719 -0.219241
v -0.456250 0.023127 -0.390251
vt 0.000244 0.062988
vt 0.000244 0.312012
vt 0.031006 0.062988
vt 0.000244 0.312012
vt 0.031006 0.312012
vt 0.031006 0.062988
vt 0.062744 0.062988
vt 0.062744 0.312012
vt 0.093506 0.062988
vt 0.062744 0.312012
vt 0.093506 0.312012
vt 0.093506 0.062988
vt 0.062256 0.062012
vt 0.062256 0.000488
vt 0.031494 0.062012
vt 0.062256 0.000488
vt 0.031494 0.000488
vt 0.031494 0.062012
vt 0.093506 0.000488
vt 0.093506 0.062012
vt 0.062744 0.000488
vt 0.093506 0.062012
vt 0.062744 0.062012
vt 0.062744 0.000488
vt 0.093994 0.062988
vt 0.093994 0.312012
vt 0.124756 0.062988
vt 0.093994 0.312012
vt 0.124756 0.312012
vt 0.124756 0.062988
vt 0.031494 0.062988
vt 0.031494 0.312012
vt 0.062256 0.062988
vt 0.031494 0.312012
vt 0.062256 0.312012
vt 0.062256 0.062988
vn 1.0000 -0.0000 0.0000
vn -1.0000 0.0000 0.0000
vn 0.0000 0.9397 -0.3420
vn 0.0000 -0.9397 0.3420
vn 0.0000 0.3420 0.9397
vn 0.0000 -0.3420 -0.9397
usemtl ghast.png
s off
f 109/109/19 110/110/19 111/111/19
f 112/112/19 113/113/19 114/114/19
f 115/115/20 116/116/20 117/117/20
f 118/118/20 119/119/20 120/120/20
f 121/121/21 122/122/21 123/123/21
f 124/124/21 125/125/21 126/126/21
f 127/127/22 128/128/22 129/129/22
f 130/130/22 131/131/22 132/132/22
f 133/133/23 134/134/23 135/135/23
f 136/136/23 137/137/23 138/138/23
f 139/139/24 140/140/24 141/141/24
f 142/142/24 143/143/24 144/144/24
o 3e496e0f-2a8d-6878-bae6-a9c4f4f688d6_Mesh_4.002
v 0.456250 0.172761 0.020865
v 0.456250 -0.355816 0.213251
v 0.456250 0.130008 -0.096597
v 0.456250 -0.355816 0.213251
v 0.456250 -0.398569 0.095789
v 0.456250 0.130008 -0.096597
v 0.331250 0.130008 -0.096597
v 0.331250 -0.398569 0.095789
v 0.331250 0.172761 0.020865
v 0.331250 -0.398569 0.095789
v 0.331250 -0.355816 0.213251
v 0.331250 0.172761 0.020865
v 0.331250 0.130008 -0.096597
v 0.331250 0.172761 0.020865
v 0.456250 0.130008 -0.096597
v 0.331250 0.172761 0.020865
v 0.456250 0.172761 0.020865
v 0.456250 0.130008 -0.096597
v 0.331250 -0.355816 0.213251
v 0.331250 -0.398569 0.095789
v 0.456250 -0.355816 0.213251
v 0.331250 -0.398569 0.095789
v 0.456250 -0.398569 0.095789
v 0.456250 -0.355816 0.213251
v 0.331250 0.172761 0.020865
v 0.331250 -0.355816 0.213251
v 0.456250 0.172761 0.020865
v 0.331250 -0.355816 0.213251
v 0.456250 -0.355816 0.213251
v 0.456250 0.172761 0.020865
v 0.456250 0.130008 -0.096597
v 0.456250 -0.398569 0.095789
v 0.331250 0.130008 -0.096597
v 0.456250 -0.398569 0.095789
v 0.331250 -0.398569 0.095789
v 0.331250 0.130008 -0.096597
vt 0.000244 0.062988
vt 0.000244 0.343262
vt 0.031006 0.062988
vt 0.000244 0.343262
vt 0.031006 0.343262
vt 0.031006 0.062988
vt 0.062744 0.062988
vt 0.062744 0.343262
vt 0.093506 0.062988
vt 0.062744 0.343262
vt 0.093506 0.343262
vt 0.093506 0.062988
vt 0.062256 0.062012
vt 0.062256 0.000488
vt 0.031494 0.062012
vt 0.062256 0.000488
vt 0.031494 0.000488
vt 0.031494 0.062012
vt 0.093506 0.000488
vt 0.093506 0.062012
vt 0.062744 0.000488
vt 0.093506 0.062012
vt 0.062744 0.062012
vt 0.062744 0.000488
vt 0.093994 0.062988
vt 0.093994 0.343262
vt 0.124756 0.062988
vt 0.093994 0.343262
vt 0.124756 0.343262
vt 0.124756 0.062988
vt 0.031494 0.062988
vt 0.031494 0.343262
vt 0.062256 0.062988
vt 0.031494 0.343262
vt 0.062256 0.343262
vt 0.062256 0.062988
vn 1.0000 0.0000 0.0000
vn -1.0000 0.0000 0.0000
vn 0.0000 0.9397 -0.3420
vn 0.0000 -0.9397 0.3420
vn 0.0000 0.3420 0.9397
vn 0.0000 -0.3420 -0.9397
usemtl ghast.png
s off
f 145/145/25 146/146/25 147/147/25
f 148/148/25 149/149/25 150/150/25
f 151/151/26 152/152/26 153/153/26
f 154/154/26 155/155/26 156/156/26
f 157/157/27 158/158/27 159/159/27
f 160/160/27 161/161/27 162/162/27
f 163/163/28 164/164/28 165/165/28
f 166/166/28 167/167/28 168/168/28
f 169/169/29 170/170/29 171/171/29
f 172/172/29 173/173/29 174/174/29
f 175/175/30 176/176/30 177/177/30
f 178/178/30 179/179/30 180/180/30
o 04905e85-070b-83ea-ce90-1216d9a62586_Mesh_5.002
v 0.143750 0.172761 0.020865
v 0.143750 -0.590740 0.298756
v 0.143750 0.130008 -0.096597
v 0.143750 -0.590740 0.298756
v 0.143750 -0.633492 0.181294
v 0.143750 0.130008 -0.096597
v 0.018750 0.130008 -0.096597
v 0.018750 -0.633492 0.181294
v 0.018750 0.172761 0.020865
v 0.018750 -0.633492 0.181294
v 0.018750 -0.590740 0.298756
v 0.018750 0.172761 0.020865
v 0.018750 0.130008 -0.096597
v 0.018750 0.172761 0.020865
v 0.143750 0.130008 -0.096597
v 0.018750 0.172761 0.020865
v 0.143750 0.172761 0.020865
v 0.143750 0.130008 -0.096597
v 0.018750 -0.590740 0.298756
v 0.018750 -0.633492 0.181294
v 0.143750 -0.590740 0.298756
v 0.018750 -0.633492 0.181294
v 0.143750 -0.633492 0.181294
v 0.143750 -0.590740 0.298756
v 0.018750 0.172761 0.020865
v 0.018750 -0.590740 0.298756
v 0.143750 0.172761 0.020865
v 0.018750 -0.590740 0.298756
v 0.143750 -0.590740 0.298756
v 0.143750 0.172761 0.020865
v 0.143750 0.130008 -0.096597
v 0.143750 -0.633492 0.181294
v 0.018750 0.130008 -0.096597
v 0.143750 -0.633492 0.181294
v 0.018750 -0.633492 0.181294
v 0.018750 0.130008 -0.096597
vt 0.000244 0.062988
vt 0.000244 0.468262
vt 0.031006 0.062988
vt 0.000244 0.468262
vt 0.031006 0.468262
vt 0.031006 0.062988
vt 0.062744 0.062988
vt 0.062744 0.468262
vt 0.093506 0.062988
vt 0.062744 0.468262
vt 0.093506 0.468262
vt 0.093506 0.062988
vt 0.062256 0.062012
vt 0.062256 0.000488
vt 0.031494 0.062012
vt 0.062256 0.000488
vt 0.031494 0.000488
vt 0.031494 0.062012
vt 0.093506 0.000488
vt 0.093506 0.062012
vt 0.062744 0.000488
vt 0.093506 0.062012
vt 0.062744 0.062012
vt 0.062744 0.000488
vt 0.093994 0.062988
vt 0.093994 0.468262
vt 0.124756 0.062988
vt 0.093994 0.468262
vt 0.124756 0.468262
vt 0.124756 0.062988
vt 0.031494 0.062988
vt 0.031494 0.468262
vt 0.062256 0.062988
vt 0.031494 0.468262
vt 0.062256 0.468262
vt 0.062256 0.062988
vn 1.0000 0.0000 0.0000
vn -1.0000 0.0000 0.0000
vn 0.0000 0.9397 -0.3420
vn 0.0000 -0.9397 0.3420
vn 0.0000 0.3420 0.9397
vn 0.0000 -0.3420 -0.9397
usemtl ghast.png
s off
f 181/181/31 182/182/31 183/183/31
f 184/184/31 185/185/31 186/186/31
f 187/187/32 188/188/32 189/189/32
f 190/190/32 191/191/32 192/192/32
f 193/193/33 194/194/33 195/195/33
f 196/196/33 197/197/33 198/198/33
f 199/199/34 200/200/34 201/201/34
f 202/202/34 203/203/34 204/204/34
f 205/205/35 206/206/35 207/207/35
f 208/208/35 209/209/35 210/210/35
f 211/211/36 212/212/36 213/213/36
f 214/214/36 215/215/36 216/216/36
o f5e140ff-cc77-ab02-d458-f101f178f324_Mesh_6.002
v 0.300000 0.279642 0.314519
v 0.300000 -0.425127 0.571034
v 0.300000 0.236890 0.197057
v 0.300000 -0.425127 0.571034
v 0.300000 -0.467880 0.453572
v 0.300000 0.236890 0.197057
v 0.175000 0.236890 0.197057
v 0.175000 -0.467880 0.453572
v 0.175000 0.279642 0.314519
v 0.175000 -0.467880 0.453572
v 0.175000 -0.425127 0.571034
v 0.175000 0.279642 0.314519
v 0.175000 0.236890 0.197057
v 0.175000 0.279642 0.314519
v 0.300000 0.236890 0.197057
v 0.175000 0.279642 0.314519
v 0.300000 0.279642 0.314519
v 0.300000 0.236890 0.197057
v 0.175000 -0.425127 0.571034
v 0.175000 -0.467880 0.453572
v 0.300000 -0.425127 0.571034
v 0.175000 -0.467880 0.453572
v 0.300000 -0.467880 0.453572
v 0.300000 -0.425127 0.571034
v 0.175000 0.279642 0.314519
v 0.175000 -0.425127 0.571034
v 0.300000 0.279642 0.314519
v 0.175000 -0.425127 0.571034
v 0.300000 -0.425127 0.571034
v 0.300000 0.279642 0.314519
v 0.300000 0.236890 0.197057
v 0.300000 -0.467880 0.453572
v 0.175000 0.236890 0.197057
v 0.300000 -0.467880 0.453572
v 0.175000 -0.467880 0.453572
v 0.175000 0.236890 0.197057
vt 0.000244 0.062988
vt 0.000244 0.437012
vt 0.031006 0.062988
vt 0.000244 0.437012
vt 0.031006 0.437012
vt 0.031006 0.062988
vt 0.062744 0.062988
vt 0.062744 0.437012
vt 0.093506 0.062988
vt 0.062744 0.437012
vt 0.093506 0.437012
vt 0.093506 0.062988
vt 0.062256 0.062012
vt 0.062256 0.000488
vt 0.031494 0.062012
vt 0.062256 0.000488
vt 0.031494 0.000488
vt 0.031494 0.062012
vt 0.093506 0.000488
vt 0.093506 0.062012
vt 0.062744 0.000488
vt 0.093506 0.062012
vt 0.062744 0.062012
vt 0.062744 0.000488
vt 0.093994 0.062988
vt 0.093994 0.437012
vt 0.124756 0.062988
vt 0.093994 0.437012
vt 0.124756 0.437012
vt 0.124756 0.062988
vt 0.031494 0.062988
vt 0.031494 0.437012
vt 0.062256 0.062988
vt 0.031494 0.437012
vt 0.062256 0.437012
vt 0.062256 0.062988
vn 1.0000 0.0000 0.0000
vn -1.0000 0.0000 0.0000
vn 0.0000 0.9397 -0.3420
vn 0.0000 -0.9397 0.3420
vn 0.0000 0.3420 0.9397
vn 0.0000 -0.3420 -0.9397
usemtl ghast.png
s off
f 217/217/37 218/218/37 219/219/37
f 220/220/37 221/221/37 222/222/37
f 223/223/38 224/224/38 225/225/38
f 226/226/38 227/227/38 228/228/38
f 229/229/39 230/230/39 231/231/39
f 232/232/39 233/233/39 234/234/39
f 235/235/40 236/236/40 237/237/40
f 238/238/40 239/239/40 240/240/40
f 241/241/41 242/242/41 243/243/41
f 244/244/41 245/245/41 246/246/41
f 247/247/42 248/248/42 249/249/42
f 250/250/42 251/251/42 252/252/42
o b23529f1-a049-0791-f1ce-c8ec5d217d38_Mesh_7.002
v -0.018750 0.279642 0.314519
v -0.018750 -0.425127 0.571034
v -0.018750 0.236890 0.197057
v -0.018750 -0.425127 0.571034
v -0.018750 -0.467880 0.453572
v -0.018750 0.236890 0.197057
v -0.143750 0.236890 0.197057
v -0.143750 -0.467880 0.453572
v -0.143750 0.279642 0.314519
v -0.143750 -0.467880 0.453572
v -0.143750 -0.425127 0.571034
v -0.143750 0.279642 0.314519
v -0.143750 0.236890 0.197057
v -0.143750 0.279642 0.314519
v -0.018750 0.236890 0.197057
v -0.143750 0.279642 0.314519
v -0.018750 0.279642 0.314519
v -0.018750 0.236890 0.197057
v -0.143750 -0.425127 0.571034
v -0.143750 -0.467880 0.453572
v -0.018750 -0.425127 0.571034
v -0.143750 -0.467880 0.453572
v -0.018750 -0.467880 0.453572
v -0.018750 -0.425127 0.571034
v -0.143750 0.279642 0.314519
v -0.143750 -0.425127 0.571034
v -0.018750 0.279642 0.314519
v -0.143750 -0.425127 0.571034
v -0.018750 -0.425127 0.571034
v -0.018750 0.279642 0.314519
v -0.018750 0.236890 0.197057
v -0.018750 -0.467880 0.453572
v -0.143750 0.236890 0.197057
v -0.018750 -0.467880 0.453572
v -0.143750 -0.467880 0.453572
v -0.143750 0.236890 0.197057
vt 0.000244 0.062988
vt 0.000244 0.437012
vt 0.031006 0.062988
vt 0.000244 0.437012
vt 0.031006 0.437012
vt 0.031006 0.062988
vt 0.062744 0.062988
vt 0.062744 0.437012
vt 0.093506 0.062988
vt 0.062744 0.437012
vt 0.093506 0.437012
vt 0.093506 0.062988
vt 0.062256 0.062012
vt 0.062256 0.000488
vt 0.031494 0.062012
vt 0.062256 0.000488
vt 0.031494 0.000488
vt 0.031494 0.062012
vt 0.093506 0.000488
vt 0.093506 0.062012
vt 0.062744 0.000488
vt 0.093506 0.062012
vt 0.062744 0.062012
vt 0.062744 0.000488
vt 0.093994 0.062988
vt 0.093994 0.437012
vt 0.124756 0.062988
vt 0.093994 0.437012
vt 0.124756 0.437012
vt 0.124756 0.062988
vt 0.031494 0.062988
vt 0.031494 0.437012
vt 0.062256 0.062988
vt 0.031494 0.437012
vt 0.062256 0.437012
vt 0.062256 0.062988
vn 1.0000 0.0000 0.0000
vn -1.0000 -0.0000 0.0000
vn 0.0000 0.9397 -0.3420
vn 0.0000 -0.9397 0.3420
vn 0.0000 0.3420 0.9397
vn 0.0000 -0.3420 -0.9397
usemtl ghast.png
s off
f 253/253/43 254/254/43 255/255/43
f 256/256/43 257/257/43 258/258/43
f 259/259/44 260/260/44 261/261/44
f 262/262/44 263/263/44 264/264/44
f 265/265/45 266/266/45 267/267/45
f 268/268/45 269/269/45 270/270/45
f 271/271/46 272/272/46 273/273/46
f 274/274/46 275/275/46 276/276/46
f 277/277/47 278/278/47 279/279/47
f 280/280/47 281/281/47 282/282/47
f 283/283/48 284/284/48 285/285/48
f 286/286/48 287/287/48 288/288/48
o d8c79bf9-7c16-757f-e538-3f9694267250_Mesh_8.002
v -0.331250 0.279642 0.314519
v -0.331250 -0.483858 0.592410
v -0.331250 0.236890 0.197057
v -0.331250 -0.483858 0.592410
v -0.331250 -0.526611 0.474948
v -0.331250 0.236890 0.197057
v -0.456250 0.236890 0.197057
v -0.456250 -0.526611 0.474948
v -0.456250 0.279642 0.314519
v -0.456250 -0.526611 0.474948
v -0.456250 -0.483858 0.592410
v -0.456250 0.279642 0.314519
v -0.456250 0.236890 0.197057
v -0.456250 0.279642 0.314519
v -0.331250 0.236890 0.197057
v -0.456250 0.279642 0.314519
v -0.331250 0.279642 0.314519
v -0.331250 0.236890 0.197057
v -0.456250 -0.483858 0.592410
v -0.456250 -0.526611 0.474948
v -0.331250 -0.483858 0.592410
v -0.456250 -0.526611 0.474948
v -0.331250 -0.526611 0.474948
v -0.331250 -0.483858 0.592410
v -0.456250 0.279642 0.314519
v -0.456250 -0.483858 0.592410
v -0.331250 0.279642 0.314519
v -0.456250 -0.483858 0.592410
v -0.331250 -0.483858 0.592410
v -0.331250 0.279642 0.314519
v -0.331250 0.236890 0.197057
v -0.331250 -0.526611 0.474948
v -0.456250 0.236890 0.197057
v -0.331250 -0.526611 0.474948
v -0.456250 -0.526611 0.474948
v -0.456250 0.236890 0.197057
vt 0.000244 0.062988
vt 0.000244 0.468262
vt 0.031006 0.062988
vt 0.000244 0.468262
vt 0.031006 0.468262
vt 0.031006 0.062988
vt 0.062744 0.062988
vt 0.062744 0.468262
vt 0.093506 0.062988
vt 0.062744 0.468262
vt 0.093506 0.468262
vt 0.093506 0.062988
vt 0.062256 0.062012
vt 0.062256 0.000488
vt 0.031494 0.062012
vt 0.062256 0.000488
vt 0.031494 0.000488
vt 0.031494 0.062012
vt 0.093506 0.000488
vt 0.093506 0.062012
vt 0.062744 0.000488
vt 0.093506 0.062012
vt 0.062744 0.062012
vt 0.062744 0.000488
vt 0.093994 0.062988
vt 0.093994 0.468262
vt 0.124756 0.062988
vt 0.093994 0.468262
vt 0.124756 0.468262
vt 0.124756 0.062988
vt 0.031494 0.062988
vt 0.031494 0.468262
vt 0.062256 0.062988
vt 0.031494 0.468262
vt 0.062256 0.468262
vt 0.062256 0.062988
vn 1.0000 0.0000 0.0000
vn -1.0000 0.0000 0.0000
vn 0.0000 0.9397 -0.3420
vn 0.0000 -0.9397 0.3420
vn 0.0000 0.3420 0.9397
vn 0.0000 -0.3420 -0.9397
usemtl ghast.png
s off
f 289/289/49 290/290/49 291/291/49
f 292/292/49 293/293/49 294/294/49
f 295/295/50 296/296/50 297/297/50
f 298/298/50 299/299/50 300/300/50
f 301/301/51 302/302/51 303/303/51
f 304/304/51 305/305/51 306/306/51
f 307/307/52 308/308/52 309/309/52
f 310/310/52 311/311/52 312/312/52
f 313/313/53 314/314/53 315/315/53
f 316/316/53 317/317/53 318/318/53
f 319/319/54 320/320/54 321/321/54
f 322/322/54 323/323/54 324/324/54
o dec93117-7c86-ed99-6c80-8de4668e75df_Mesh_9.002
v -0.175000 0.172761 0.020865
v -0.175000 -0.473278 0.256004
v -0.175000 0.130008 -0.096597
v -0.175000 -0.473278 0.256004
v -0.175000 -0.516030 0.138542
v -0.175000 0.130008 -0.096597
v -0.300000 0.130008 -0.096597
v -0.300000 -0.516030 0.138542
v -0.300000 0.172761 0.020865
v -0.300000 -0.516030 0.138542
v -0.300000 -0.473278 0.256004
v -0.300000 0.172761 0.020865
v -0.300000 0.130008 -0.096597
v -0.300000 0.172761 0.020865
v -0.175000 0.130008 -0.096597
v -0.300000 0.172761 0.020865
v -0.175000 0.172761 0.020865
v -0.175000 0.130008 -0.096597
v -0.300000 -0.473278 0.256004
v -0.300000 -0.516030 0.138542
v -0.175000 -0.473278 0.256004
v -0.300000 -0.516030 0.138542
v -0.175000 -0.516030 0.138542
v -0.175000 -0.473278 0.256004
v -0.300000 0.172761 0.020865
v -0.300000 -0.473278 0.256004
v -0.175000 0.172761 0.020865
v -0.300000 -0.473278 0.256004
v -0.175000 -0.473278 0.256004
v -0.175000 0.172761 0.020865
v -0.175000 0.130008 -0.096597
v -0.175000 -0.516030 0.138542
v -0.300000 0.130008 -0.096597
v -0.175000 -0.516030 0.138542
v -0.300000 -0.516030 0.138542
v -0.300000 0.130008 -0.096597
vt 0.000244 0.062988
vt 0.000244 0.405762
vt 0.031006 0.062988
vt 0.000244 0.405762
vt 0.031006 0.405762
vt 0.031006 0.062988
vt 0.062744 0.062988
vt 0.062744 0.405762
vt 0.093506 0.062988
vt 0.062744 0.405762
vt 0.093506 0.405762
vt 0.093506 0.062988
vt 0.062256 0.062012
vt 0.062256 0.000488
vt 0.031494 0.062012
vt 0.062256 0.000488
vt 0.031494 0.000488
vt 0.031494 0.062012
vt 0.093506 0.000488
vt 0.093506 0.062012
vt 0.062744 0.000488
vt 0.093506 0.062012
vt 0.062744 0.062012
vt 0.062744 0.000488
vt 0.093994 0.062988
vt 0.093994 0.405762
vt 0.124756 0.062988
vt 0.093994 0.405762
vt 0.124756 0.405762
vt 0.124756 0.062988
vt 0.031494 0.062988
vt 0.031494 0.405762
vt 0.062256 0.062988
vt 0.031494 0.405762
vt 0.062256 0.405762
vt 0.062256 0.062988
vn 1.0000 0.0000 0.0000
vn -1.0000 -0.0000 0.0000
vn 0.0000 0.9397 -0.3420
vn 0.0000 -0.9397 0.3420
vn 0.0000 0.3420 0.9397
vn 0.0000 -0.3420 -0.9397
usemtl ghast.png
s off
f 325/325/55 326/326/55 327/327/55
f 328/328/55 329/329/55 330/330/55
f 331/331/56 332/332/56 333/333/56
f 334/334/56 335/335/56 336/336/56
f 337/337/57 338/338/57 339/339/57
f 340/340/57 341/341/57 342/342/57
f 343/343/58 344/344/58 345/345/58
f 346/346/58 347/347/58 348/348/58
f 349/349/59 350/350/59 351/351/59
f 352/352/59 353/353/59 354/354/59
f 355/355/60 356/356/60 357/357/60
f 358/358/60 359/359/60 360/360/60
